<svg width="24" height="25" viewBox="0 0 24 25" fill="none" xmlns="http://www.w3.org/2000/svg">
<path d="M11.9592 0.243164C5.36507 0.243164 0 5.60778 0 12.2023C0 18.7969 5.36507 24.1615 11.9592 24.1615C18.5533 24.1615 23.9184 18.7969 23.9184 12.2023C23.9184 5.60778 18.5533 0.243164 11.9592 0.243164ZM17.7088 13.1223H12.8791V18.1819C12.8791 18.6897 12.467 19.1019 11.9592 19.1019C11.4514 19.1019 11.0392 18.6897 11.0392 18.1819V13.1223H6.20958C5.70177 13.1223 5.28964 12.7102 5.28964 12.2023C5.28964 11.6945 5.70177 11.2824 6.20958 11.2824H11.0392V6.68272C11.0392 6.17492 11.4514 5.76279 11.9592 5.76279C12.467 5.76279 12.8791 6.17492 12.8791 6.68272V11.2824H17.7088C18.2166 11.2824 18.6287 11.6945 18.6287 12.2023C18.6287 12.7102 18.2166 13.1223 17.7088 13.1223Z" fill="#282829"/>
</svg>
